<?xml version="1.0" encoding="UTF-8" standalone="no"?>
<svg
   viewBox="0 0 89 89"
   version="1.1"
   id="svg4"
   xmlns="http://www.w3.org/2000/svg"
   xmlns:svg="http://www.w3.org/2000/svg">
  <defs
     id="defs4" />
  <path
     id="path6"
     style="stroke-linecap:round;stroke-linejoin:round;-inkscape-stroke:none;fill:#4828d7;fill-opacity:1"
     d="M 31.998047 6.5 A 7.6938 7.6938 0 0 0 26.751953 9.1757812 C 2.3634726 37.76917 7.5957031 74.169922 7.5957031 74.169922 A 7.6938 7.6938 0 0 0 16.259766 80.753906 A 7.6938 7.6938 0 0 0 22.84375 72.091797 C 22.84375 72.091797 19.004189 41.97118 38.458984 19.162109 A 7.6938 7.6938 0 0 0 37.599609 8.3144531 A 7.6938 7.6938 0 0 0 31.998047 6.5 z M 56.273438 19.349609 A 7.6938 7.6938 0 0 0 50.671875 21.164062 C 25.969663 42.214643 26.234375 74.076172 26.234375 74.076172 A 7.6938 7.6938 0 0 0 33.929688 81.769531 A 7.6938 7.6938 0 0 0 41.623047 74.076172 C 41.623047 74.076172 41.889237 48.86443 60.652344 32.875 A 7.6938 7.6938 0 0 0 61.517578 22.029297 A 7.6938 7.6938 0 0 0 56.273438 19.349609 z M 74.023438 40.871094 A 7.6938 7.6938 0 0 0 72.316406 41.099609 C 47.675223 47.259907 45.158203 74.220703 45.158203 74.220703 A 7.6938 7.6938 0 0 0 52.216797 82.5 A 7.6938 7.6938 0 0 0 60.496094 75.441406 C 60.496094 75.441406 61.380299 59.693988 76.046875 56.027344 A 7.6938 7.6938 0 0 0 81.646484 46.697266 A 7.6938 7.6938 0 0 0 74.023438 40.871094 z " />
</svg>
